# xmcd
# Track frame offsets:
# 150
# 12170
# 26390
# 47475
# 62453
#
# Disc length: 1027 seconds
# Revision: 0
# Processed by: cddbd v1.5.2PL0 Copyright (c) Steve Scherf et al.
# Submitted via: VisiTrax 2.11.1.266 - For more info visit www.synapsa.com
#
DISCID=2d040105
DTITLE=Brewn - Bear Country Road
DYEAR=2010
DGENRE=
TTITLE0=Lazy
TTITLE1=Heaven
TTITLE2=Just be you
TTITLE3=Coasters and toasters
TTITLE4=Dad's long shortcuts
EXTD=
EXTT0=
EXTT1=
EXTT2=
EXTT3=
EXTT4=
PLAYORDER=
